<?xml version="1.0" encoding="utf-8"?>
<!-- Generated by IcoMoon.io -->
<!DOCTYPE svg PUBLIC "-//W3C//DTD SVG 1.1//EN" "http://www.w3.org/Graphics/SVG/1.1/DTD/svg11.dtd">
<svg version="1.1" xmlns="http://www.w3.org/2000/svg" xmlns:xlink="http://www.w3.org/1999/xlink" width="27" height="32" viewBox="0 0 27 32">
<path d="M15.837 6.978v17.102l-0.107 1.289-0.302 1.218-0.48 1.138-0.64 1.031-0.791 0.924-0.924 0.791-1.040 0.649-1.138 0.48-1.218 0.293-1.28 0.107-1.28-0.107-1.218-0.293-1.138-0.48-1.040-0.649-0.924-0.791-0.791-0.924-0.64-1.031-0.48-1.138-0.302-1.218-0.107-1.289 0.107-1.28 0.302-1.218 0.48-1.138 0.64-1.031 0.791-0.924 0.924-0.791 1.040-0.649 1.138-0.48 1.218-0.302 1.28-0.098 1.28 0.098 1.218 0.302 0.72 0.302v-16.871h15.529v6.978h-10.827z"></path>
</svg>
