<svg xmlns="http://www.w3.org/2000/svg" viewBox="0 0 166 32"><path fill="#1976D2" d="M72.253 10.709c-4.547 0-7.116 3.733-7.116 7.761 0 1.797.393 7.747 8.056 7.747 2.26 0 3.789-.604 4.912-1.221v-3.368s-1.839 1.446-4.519 1.446c-2.989 0-4.463-1.684-4.702-3.509h9.951v-1.909c0-1.123.028-6.947-6.582-6.947zm-3.355 5.895c.211-1.305 1.193-2.779 3.523-2.779 1.993 0 2.751 1.361 2.919 2.779h-6.442zM92.014 16.253c0-5.305-3.803-5.558-5.698-5.558-2.849 0-5.361 1.221-5.361 1.221v3.354s2.246-1.46 4.449-1.46c2.835 0 2.947 1.502 2.947 3.256-5.151-.197-8.309.856-8.309 4.688 0 3.818 3.902 4.463 6.807 4.463 2.218 0 5.193-.547 5.193-.547s-.028-4.547-.028-9.418zm-3.719 6.877s-4.547.884-4.547-1.67c0-2.161 3.397-1.881 4.547-1.811v3.481zM99.972 23.102c-1.698 0-2.147-.898-2.147-2.246v-6.709h4.154v-3.13h-4.154V7.382h-3.719v12.954c0 2.203-.197 5.895 4.898 5.895 2.386 0 3.537-.716 3.537-.716l.014-3.214c.014 0-1.389.8-2.582.8zM62.568 10.765V6.99s-2.232-1.221-5.853-1.221-7.186 1.628-7.186 5.726c0 3.368 2.302 4.547 4.211 5.235 1.923.688 3.663 1.333 4.589 1.825s1.502.982 1.502 2.119c0 1.123-.646 2.246-3.789 2.246s-6.274-2.077-6.274-2.077v3.803s2.442 1.6 6.274 1.6 7.663-1.446 7.663-5.867c0-3.747-3.382-5.095-4.365-5.502-.814-.379-3.846-1.403-4.393-1.684-.786-.407-1.656-.856-1.572-2.077.084-1.137.94-2.049 3.158-2.049 3.186 0 6.035 1.698 6.035 1.698zM156.505 25.895V6.035h-3.719v19.86z"/><path fill="#1976D2" d="M162.035 25.895l-5.909-8.042 5.782-6.807h4.337l-5.909 6.807 6.049 8.042zM128.884 10.709c-4.547 0-7.116 3.733-7.116 7.761 0 1.797.393 7.747 8.056 7.747 2.26 0 3.789-.604 4.912-1.221v-3.368s-1.839 1.446-4.519 1.446c-2.989 0-4.463-1.684-4.702-3.509h9.951v-1.909c0-1.123.028-6.947-6.582-6.947zm-3.354 5.895c.211-1.305 1.193-2.779 3.523-2.779 1.993 0 2.751 1.361 2.919 2.779h-6.442zM144.239 10.709c-4.547 0-7.116 3.733-7.116 7.761 0 1.797.393 7.747 8.056 7.747 2.26 0 3.789-.604 4.912-1.221v-3.368s-1.839 1.446-4.519 1.446c-2.989 0-4.463-1.684-4.702-3.509h9.937v-1.909c0-1.123.028-6.947-6.568-6.947zm-3.369 5.895c.211-1.305 1.193-2.779 3.523-2.779 1.993 0 2.751 1.361 2.919 2.779h-6.442zM119.298 10.765V6.99s-1.867-1.221-5.768-1.221c-5.193 0-10.077 3.761-10.077 10.414 0 6.372 4.042 10.049 10.147 10.049 4.211 0 6.161-1.207 6.161-1.207v-8.197c0-.996-.814-1.811-1.811-1.811h-5.923v3.312h4.014v4.253s-1.011.351-2.554.351c-4.056 0-6.161-3.13-6.161-6.723 0-3.818 2.4-7.116 6.288-7.116 2.779-.028 4.154.73 5.684 1.67zM7.2 3.453S12.463 0 20.982 0s13.782 3.453 13.782 3.453l-3.453 18.302H10.637L7.198 3.453zM7.2 25.797s5.361 2.456 13.782 2.456 13.782-2.456 13.782-2.456v3.902s-5.46 2.302-13.782 2.302S7.2 29.699 7.2 29.699v-3.902zM6.891 23.27v-6.512a1.91 1.91 0 0 0-1.909-1.909H0v3.453h3.214v4.982h3.677zM35.074 23.27v-6.512a1.91 1.91 0 0 1 1.909-1.909h4.982v3.453h-3.214v4.982h-3.677z"/></svg>