<svg xmlns="http://www.w3.org/2000/svg" viewBox="0 0 106 32"><path fill="#00C853" d="M15.999.053C7.19.053.048 7.195.048 16.004S7.19 31.955 15.999 31.955c8.81 0 15.951-7.141 15.951-15.951S24.809.054 15.999.054V.053zm7.315 23.005a.994.994 0 0 1-1.368.33c-3.745-2.288-8.46-2.806-14.012-1.537a.994.994 0 0 1-.442-1.939c6.076-1.388 11.288-.79 15.493 1.779a.995.995 0 0 1 .33 1.368zm1.953-4.343c-.36.585-1.126.77-1.71.41-4.288-2.635-10.823-3.399-15.895-1.859a1.245 1.245 0 0 1-1.552-.829 1.246 1.246 0 0 1 .829-1.551c5.793-1.758 12.995-.906 17.918 2.119.585.36.77 1.126.41 1.71zm.167-4.522c-5.141-3.054-13.623-3.334-18.531-1.845a1.492 1.492 0 0 1-.867-2.855c5.634-1.71 15.001-1.38 20.92 2.134a1.49 1.49 0 1 1-1.522 2.566zm18.012.585c-2.754-.657-3.244-1.118-3.244-2.086 0-.915.861-1.531 2.143-1.531 1.242 0 2.472.468 3.764 1.43a.176.176 0 0 0 .135.033.177.177 0 0 0 .12-.074l1.345-1.896a.18.18 0 0 0-.034-.245c-1.537-1.233-3.267-1.832-5.29-1.832-2.973 0-5.051 1.785-5.051 4.338 0 2.738 1.792 3.708 4.89 4.456 2.634.607 3.08 1.116 3.08 2.025 0 1.008-.899 1.634-2.347 1.634-1.608 0-2.92-.543-4.387-1.811a.188.188 0 0 0-.131-.044.18.18 0 0 0-.124.063l-1.509 1.794a.181.181 0 0 0 .017.251c1.707 1.524 3.806 2.328 6.072 2.328 3.204 0 5.274-1.75 5.274-4.461.006-2.287-1.364-3.554-4.718-4.37l-.006-.002zm11.973-2.716c-1.389 0-2.528.547-3.469 1.668v-1.262a.18.18 0 0 0-.179-.181h-2.467a.18.18 0 0 0-.179.181v14.019c0 .099.08.181.179.181h2.467a.18.18 0 0 0 .179-.181v-4.425c.941 1.053 2.08 1.57 3.469 1.57 2.581 0 5.194-1.987 5.194-5.785.004-3.799-2.61-5.786-5.192-5.786h-.002zm2.326 5.785c0 1.933-1.19 3.284-2.897 3.284-1.686 0-2.958-1.411-2.958-3.284s1.272-3.283 2.958-3.283c1.678 0 2.897 1.38 2.897 3.283zm9.564-5.785c-3.324 0-5.928 2.559-5.928 5.827 0 3.233 2.587 5.764 5.888 5.764 3.335 0 5.947-2.55 5.947-5.806 0-3.244-2.594-5.785-5.907-5.785zm0 9.088c-1.768 0-3.101-1.421-3.101-3.304 0-1.891 1.288-3.264 3.061-3.264 1.779 0 3.12 1.42 3.12 3.305 0 1.891-1.295 3.262-3.08 3.262zm13.003-8.863h-2.714V9.513a.18.18 0 0 0-.179-.181h-2.467a.182.182 0 0 0-.181.181v2.774h-1.185a.18.18 0 0 0-.179.181v2.119c0 .099.08.181.179.181h1.185v5.485c0 2.215 1.103 3.339 3.28 3.339.884 0 1.617-.183 2.309-.575a.175.175 0 0 0 .091-.156v-2.019a.177.177 0 0 0-.086-.152.177.177 0 0 0-.175-.008 3.114 3.114 0 0 1-1.448.349c-.79 0-1.145-.36-1.145-1.164V14.77h2.714a.18.18 0 0 0 .179-.181V12.47a.175.175 0 0 0-.177-.181l-.002-.001zm9.456.011v-.341c0-1.002.385-1.45 1.246-1.45.514 0 .928.102 1.39.256a.179.179 0 0 0 .236-.172V8.513c0-.079-.05-.15-.128-.173a6.77 6.77 0 0 0-2.05-.294c-2.276 0-3.482 1.283-3.482 3.708v.522h-1.185a.182.182 0 0 0-.181.181v2.13c0 .099.082.181.181.181h1.185v8.458c0 .101.082.181.181.181h2.465a.18.18 0 0 0 .181-.181v-8.458h2.303l3.528 8.458c-.4.888-.794 1.065-1.331 1.065-.434 0-.893-.13-1.36-.387a.193.193 0 0 0-.143-.013.177.177 0 0 0-.107.097l-.836 1.834a.18.18 0 0 0 .078.234c.872.472 1.659.674 2.632.674 1.821 0 2.829-.85 3.714-3.131l4.278-11.055a.177.177 0 0 0-.019-.168.176.176 0 0 0-.147-.078h-2.568a.18.18 0 0 0-.171.121l-2.63 7.511-2.88-7.516a.18.18 0 0 0-.168-.116l-4.213-.001zm-5.482-.011h-2.467a.182.182 0 0 0-.181.181v10.758c0 .101.082.181.181.181h2.467c.099 0 .181-.08.181-.181V12.468a.18.18 0 0 0-.181-.181v-.001zm-1.219-4.899a1.769 1.769 0 1 0-.002 3.538 1.769 1.769 0 0 0 .002-3.538zm21.603 8.358c-.975 0-1.735-.784-1.735-1.736s.77-1.745 1.745-1.745 1.735.784 1.735 1.735c0 .952-.77 1.746-1.745 1.746zm.01-3.307c-.89 0-1.562.707-1.562 1.572s.669 1.562 1.552 1.562c.89 0 1.562-.706 1.562-1.572s-.669-1.562-1.552-1.562zm.385 1.74l.491.687h-.415l-.442-.63h-.379v.63h-.347v-1.822h.811c.425 0 .703.217.703.581.002.299-.171.481-.421.553h-.002zm-.294-.822h-.451v.576h.451c.225 0 .36-.11.36-.288 0-.187-.135-.288-.36-.288z"/></svg>