<svg xmlns="http://www.w3.org/2000/svg" width="22" height="32" viewBox="0 0 22 32"><path d="M16.35 1.249l1.468.91 1.305 1.119.592.69h-7.046v7.626l-.323-.136-.55-.136-.581-.047-.58.047-.55.136-.514.217-.469.291-.417.358-.357.417-.291.469-.218.513-.136.55-.047.58.047.58.136.55.218.513.291.469.357.417.417.358.469.291.514.217.55.136.58.047.581-.047.55-.136.514-.217.469-.291.417-.358.358-.417.291-.469.217-.513.136-.55.046-.58V7.122h6.811l.226.536.424 1.724.146 1.819-.314 2.623-.852 2.765-1.254 2.808-1.523 2.753-1.657 2.599-1.658 2.348-1.524 1.997-1.254 1.548-.851 1.002-.313.355-.313-.355-.851-1.002-1.254-1.548-1.524-1.997-1.657-2.348-1.657-2.599-1.524-2.753-1.254-2.808-.852-2.765-.314-2.623.146-1.819.424-1.724.679-1.607.91-1.468 1.119-1.304L4.583 2.16l1.468-.91L7.658.572 9.382.148l1.819-.146 1.819.146 1.724.424 1.607.678z"/></svg>