<svg style="isolation:isolate" width="300" height="300" xmlns="http://www.w3.org/2000/svg"><defs><style id="bx-google-fonts">@import url(https://fonts.googleapis.com/css?family=Roboto:100,300,500,700,900,100italic,300italic,400,400italic,500italic,700italic,900italic);</style></defs><path d="M0 0h2069.756v300H0V0z" fill="rgba(0,0,0,0)" stroke="rgba(0,0,0,0)"/><path d="M149.5 24C101.125 24 62 63.125 62 111.5c0 65.625 87.5 162.5 87.5 162.5S237 177.125 237 111.5c0-48.375-39.125-87.5-87.5-87.5m0 0zm-2.333 35.5v43.307c-2.194-.794-4.527-1.307-7-1.307-11.62 0-21 9.38-21 21s9.38 21 21 21c10.78 0 19.6-8.167 20.766-18.667h.234V73.5h18.666v-14h-32.666z" stroke-miterlimit="10" fill-rule="evenodd"/><text x="295.323" y="263.854" style="text-transform:capitalize" font-size="314" white-space="pre">Travel</text><text x="1178.139" y="263.847" style="text-transform:capitalize" font-size="314" white-space="pre">Tunes</text></svg>