<?xml version="1.0" encoding="utf-8"?>
<!-- Generated by IcoMoon.io -->
<!DOCTYPE svg PUBLIC "-//W3C//DTD SVG 1.1//EN" "http://www.w3.org/Graphics/SVG/1.1/DTD/svg11.dtd">
<svg version="1.1" xmlns="http://www.w3.org/2000/svg" xmlns:xlink="http://www.w3.org/1999/xlink" viewBox="0 0 42 32">
<path d="M7.2 3.453c0 0 5.263-3.453 13.782-3.453s13.782 3.453 13.782 3.453l-3.453 18.301h-20.673l-3.439-18.301z"></path>
<path d="M7.2 25.796c0 0 5.361 2.456 13.782 2.456s13.782-2.456 13.782-2.456v3.902c0 0-5.46 2.302-13.782 2.302s-13.782-2.302-13.782-2.302v-3.902z"></path>
<path d="M6.891 23.269v-6.512c0-1.053-0.856-1.909-1.909-1.909h-4.982v3.453h3.214v4.982h3.677z"></path>
<path d="M35.073 23.269v-6.512c0-1.053 0.856-1.909 1.909-1.909h4.982v3.453h-3.214v4.982h-3.677z"></path>
</svg>
