<?xml version="1.0" encoding="utf-8"?>
<!-- Generated by IcoMoon.io -->
<!DOCTYPE svg PUBLIC "-//W3C//DTD SVG 1.1//EN" "http://www.w3.org/Graphics/SVG/1.1/DTD/svg11.dtd">
<svg version="1.1" xmlns="http://www.w3.org/2000/svg" xmlns:xlink="http://www.w3.org/1999/xlink" viewBox="0 0 166 32">
<path fill="#1976D2" d="M72.253 10.709c-4.547 0-7.116 3.733-7.116 7.761 0 1.797 0.393 7.747 8.056 7.747 2.26 0 3.789-0.604 4.912-1.221 0-0.926 0-3.368 0-3.368s-1.839 1.446-4.519 1.446c-2.989 0-4.463-1.684-4.702-3.509h9.951c0 0 0-0.772 0-1.909 0-1.123 0.028-6.947-6.582-6.947zM68.898 16.604c0.211-1.305 1.193-2.779 3.523-2.779 1.993 0 2.751 1.361 2.919 2.779h-6.442z"></path>
<path fill="#1976D2" d="M92.014 16.253c0-5.305-3.803-5.558-5.698-5.558-2.849 0-5.361 1.221-5.361 1.221v3.354c0 0 2.246-1.46 4.449-1.46 2.835 0 2.947 1.502 2.947 3.256-5.151-0.197-8.309 0.856-8.309 4.688 0 3.818 3.902 4.463 6.807 4.463 2.218 0 5.193-0.547 5.193-0.547s-0.028-4.547-0.028-9.418zM88.295 23.13c0 0-4.547 0.884-4.547-1.67 0-2.161 3.397-1.881 4.547-1.811v3.481z"></path>
<path fill="#1976D2" d="M99.972 23.102c-1.698 0-2.147-0.898-2.147-2.246 0 0 0-3.551 0-6.709h4.154v-3.13h-4.154c0-1.403 0-2.667 0-3.635h-3.719v12.954c0 2.203-0.197 5.895 4.898 5.895 2.386 0 3.537-0.716 3.537-0.716l0.014-3.214c0.014 0-1.389 0.8-2.582 0.8z"></path>
<path fill="#1976D2" d="M62.568 10.765v-3.775c0 0-2.232-1.221-5.853-1.221s-7.186 1.628-7.186 5.726c0 3.368 2.302 4.547 4.211 5.235 1.923 0.688 3.663 1.333 4.589 1.825s1.502 0.982 1.502 2.119c0 1.123-0.646 2.246-3.789 2.246s-6.274-2.077-6.274-2.077v3.803c0 0 2.442 1.6 6.274 1.6s7.663-1.446 7.663-5.867c0-3.747-3.382-5.095-4.365-5.502-0.814-0.379-3.846-1.403-4.393-1.684-0.786-0.407-1.656-0.856-1.572-2.077 0.084-1.137 0.94-2.049 3.158-2.049 3.186 0 6.035 1.698 6.035 1.698z"></path>
<path fill="#1976D2" d="M156.505 25.895v-19.86h-3.719v19.86z"></path>
<path fill="#1976D2" d="M162.035 25.895l-5.909-8.042 5.782-6.807h4.337l-5.909 6.807 6.049 8.042z"></path>
<path fill="#1976D2" d="M128.884 10.709c-4.547 0-7.116 3.733-7.116 7.761 0 1.797 0.393 7.747 8.056 7.747 2.26 0 3.789-0.604 4.912-1.221 0-0.926 0-3.368 0-3.368s-1.839 1.446-4.519 1.446c-2.989 0-4.463-1.684-4.702-3.509h9.951c0 0 0-0.772 0-1.909 0-1.123 0.028-6.947-6.582-6.947zM125.53 16.604c0.211-1.305 1.193-2.779 3.523-2.779 1.993 0 2.751 1.361 2.919 2.779h-6.442z"></path>
<path fill="#1976D2" d="M144.239 10.709c-4.547 0-7.116 3.733-7.116 7.761 0 1.797 0.393 7.747 8.056 7.747 2.26 0 3.789-0.604 4.912-1.221 0-0.926 0-3.368 0-3.368s-1.839 1.446-4.519 1.446c-2.989 0-4.463-1.684-4.702-3.509h9.937c0 0 0-0.772 0-1.909 0-1.123 0.028-6.947-6.568-6.947zM140.87 16.604c0.211-1.305 1.193-2.779 3.523-2.779 1.993 0 2.751 1.361 2.919 2.779h-6.442z"></path>
<path fill="#1976D2" d="M119.298 10.765v-3.775c0 0-1.867-1.221-5.768-1.221-5.193 0-10.077 3.761-10.077 10.414 0 6.372 4.042 10.049 10.147 10.049 4.211 0 6.161-1.207 6.161-1.207v-8.197c0-0.996-0.814-1.811-1.811-1.811h-5.923v3.312h4.014v4.253c0 0-1.011 0.351-2.554 0.351-4.056 0-6.161-3.13-6.161-6.723 0-3.818 2.4-7.116 6.288-7.116 2.779-0.028 4.154 0.73 5.684 1.67z"></path>
<path fill="#1976D2" d="M7.2 3.453c0 0 5.263-3.453 13.782-3.453s13.782 3.453 13.782 3.453l-3.453 18.302h-20.674l-3.439-18.302z"></path>
<path fill="#1976D2" d="M7.2 25.797c0 0 5.361 2.456 13.782 2.456s13.782-2.456 13.782-2.456v3.902c0 0-5.46 2.302-13.782 2.302s-13.782-2.302-13.782-2.302v-3.902z"></path>
<path fill="#1976D2" d="M6.891 23.27v-6.512c0-1.053-0.856-1.909-1.909-1.909h-4.982v3.453h3.214v4.982h3.677z"></path>
<path fill="#1976D2" d="M35.074 23.27v-6.512c0-1.053 0.856-1.909 1.909-1.909h4.982v3.453h-3.214v4.982h-3.677z"></path>
</svg>
