<?xml version="1.0" encoding="utf-8"?>
<!-- Generated by IcoMoon.io -->
<!DOCTYPE svg PUBLIC "-//W3C//DTD SVG 1.1//EN" "http://www.w3.org/Graphics/SVG/1.1/DTD/svg11.dtd">
<svg version="1.1" xmlns="http://www.w3.org/2000/svg" xmlns:xlink="http://www.w3.org/1999/xlink" viewBox="0 0 106 32">
<path fill="#00C853" d="M15.999 0.053c-8.809 0-15.951 7.142-15.951 15.951s7.142 15.951 15.951 15.951c8.81 0 15.951-7.141 15.951-15.951s-7.141-15.95-15.951-15.95l0-0.001zM23.314 23.058c-0.286 0.469-0.899 0.617-1.368 0.33-3.745-2.288-8.46-2.806-14.012-1.537-0.535 0.122-1.068-0.213-1.19-0.749s0.211-1.069 0.748-1.19c6.076-1.388 11.288-0.79 15.493 1.779 0.469 0.288 0.617 0.899 0.33 1.368zM25.267 18.715c-0.36 0.585-1.126 0.77-1.71 0.41-4.288-2.635-10.823-3.399-15.895-1.859-0.658 0.199-1.352-0.172-1.552-0.829-0.198-0.658 0.173-1.351 0.829-1.551 5.793-1.758 12.995-0.906 17.918 2.119 0.585 0.36 0.77 1.126 0.41 1.71v-0zM25.434 14.193c-5.141-3.054-13.623-3.334-18.531-1.845-0.788 0.239-1.622-0.206-1.861-0.994s0.206-1.622 0.994-1.861c5.634-1.71 15.001-1.38 20.92 2.134 0.71 0.421 0.943 1.336 0.522 2.044-0.419 0.709-1.337 0.943-2.044 0.522zM43.446 14.778c-2.754-0.657-3.244-1.118-3.244-2.086 0-0.915 0.861-1.531 2.143-1.531 1.242 0 2.472 0.468 3.764 1.43 0.038 0.029 0.088 0.041 0.135 0.033 0.050-0.007 0.091-0.034 0.12-0.074l1.345-1.896c0.055-0.078 0.040-0.186-0.034-0.245-1.537-1.233-3.267-1.832-5.29-1.832-2.973 0-5.051 1.785-5.051 4.338 0 2.738 1.792 3.708 4.89 4.456 2.634 0.607 3.080 1.116 3.080 2.025 0 1.008-0.899 1.634-2.347 1.634-1.608 0-2.92-0.543-4.387-1.811-0.036-0.032-0.086-0.046-0.131-0.044-0.050 0.004-0.093 0.027-0.124 0.063l-1.509 1.794c-0.063 0.076-0.055 0.187 0.017 0.251 1.707 1.524 3.806 2.328 6.072 2.328 3.204 0 5.274-1.75 5.274-4.461 0.006-2.287-1.364-3.554-4.718-4.37l-0.006-0.002zM55.419 12.062c-1.389 0-2.528 0.547-3.469 1.668v-1.262c0-0.1-0.080-0.181-0.179-0.181h-2.467c-0.099 0-0.179 0.081-0.179 0.181v14.019c0 0.099 0.080 0.181 0.179 0.181h2.467c0.099 0 0.179-0.082 0.179-0.181v-4.425c0.941 1.053 2.080 1.57 3.469 1.57 2.581 0 5.194-1.987 5.194-5.785 0.004-3.799-2.61-5.786-5.192-5.786l-0.002 0zM57.745 17.847c0 1.933-1.19 3.284-2.897 3.284-1.686 0-2.958-1.411-2.958-3.284s1.272-3.283 2.958-3.283c1.678-0 2.897 1.38 2.897 3.283v0zM67.309 12.062c-3.324 0-5.928 2.559-5.928 5.827 0 3.233 2.587 5.764 5.888 5.764 3.335 0 5.947-2.55 5.947-5.806 0-3.244-2.594-5.785-5.907-5.785v-0zM67.309 21.15c-1.768 0-3.101-1.421-3.101-3.304 0-1.891 1.288-3.264 3.061-3.264 1.779 0 3.12 1.42 3.12 3.305 0 1.891-1.295 3.262-3.080 3.262zM80.312 12.287h-2.714v-2.774c0-0.099-0.080-0.181-0.179-0.181h-2.467c-0.099 0-0.181 0.081-0.181 0.181v2.774h-1.185c-0.099 0-0.179 0.081-0.179 0.181v2.119c0 0.099 0.080 0.181 0.179 0.181h1.185v5.485c0 2.215 1.103 3.339 3.28 3.339 0.884 0 1.617-0.183 2.309-0.575 0.057-0.030 0.091-0.091 0.091-0.156v-2.019c0-0.061-0.032-0.12-0.086-0.152-0.053-0.034-0.12-0.036-0.175-0.008-0.474 0.238-0.933 0.349-1.448 0.349-0.79 0-1.145-0.36-1.145-1.164v-5.097h2.714c0.099 0 0.179-0.081 0.179-0.181v-2.119c0.004-0.1-0.076-0.181-0.177-0.181l-0.002-0.001zM89.768 12.298v-0.341c0-1.002 0.385-1.45 1.246-1.45 0.514 0 0.928 0.102 1.39 0.256 0.057 0.018 0.116 0.009 0.162-0.025 0.048-0.034 0.074-0.089 0.074-0.147v-2.078c0-0.079-0.050-0.15-0.128-0.173-0.488-0.145-1.112-0.294-2.050-0.294-2.276 0-3.482 1.283-3.482 3.708v0.522h-1.185c-0.099 0-0.181 0.081-0.181 0.181v2.13c0 0.099 0.082 0.181 0.181 0.181h1.185v8.458c0 0.101 0.082 0.181 0.181 0.181h2.465c0.101 0 0.181-0.080 0.181-0.181v-8.458h2.303l3.528 8.458c-0.4 0.888-0.794 1.065-1.331 1.065-0.434 0-0.893-0.13-1.36-0.387-0.044-0.023-0.097-0.027-0.143-0.013-0.048 0.017-0.088 0.051-0.107 0.097l-0.836 1.834c-0.040 0.088-0.006 0.189 0.078 0.234 0.872 0.472 1.659 0.674 2.632 0.674 1.821 0 2.829-0.85 3.714-3.131l4.278-11.055c0.023-0.056 0.015-0.118-0.019-0.168-0.032-0.049-0.088-0.078-0.147-0.078h-2.568c-0.078 0-0.147 0.049-0.171 0.121l-2.63 7.511-2.88-7.516c-0.027-0.070-0.093-0.116-0.168-0.116l-4.213-0.001zM84.286 12.287h-2.467c-0.099 0-0.181 0.081-0.181 0.181v10.758c0 0.101 0.082 0.181 0.181 0.181h2.467c0.099 0 0.181-0.080 0.181-0.181v-10.758c0-0.1-0.080-0.181-0.181-0.181v-0.001zM83.067 7.388c-0.977 0-1.77 0.791-1.77 1.768s0.792 1.769 1.77 1.769 1.768-0.792 1.768-1.769c0-0.977-0.792-1.768-1.768-1.768zM104.67 15.746c-0.975 0-1.735-0.784-1.735-1.736s0.77-1.745 1.745-1.745 1.735 0.784 1.735 1.735c0 0.952-0.77 1.746-1.745 1.746zM104.68 12.439c-0.89 0-1.562 0.707-1.562 1.572s0.669 1.562 1.552 1.562c0.89 0 1.562-0.706 1.562-1.572s-0.669-1.562-1.552-1.562zM105.065 14.179l0.491 0.687h-0.415l-0.442-0.63h-0.379v0.63h-0.347v-1.822h0.811c0.425 0 0.703 0.217 0.703 0.581 0.002 0.299-0.171 0.481-0.421 0.553h-0.002zM104.771 13.357h-0.451v0.576h0.451c0.225 0 0.36-0.11 0.36-0.288 0-0.187-0.135-0.288-0.36-0.288z"></path>
</svg>
