<?xml version="1.0" encoding="utf-8"?>
<!-- Generated by IcoMoon.io -->
<!DOCTYPE svg PUBLIC "-//W3C//DTD SVG 1.1//EN" "http://www.w3.org/Graphics/SVG/1.1/DTD/svg11.dtd">
<svg version="1.1" xmlns="http://www.w3.org/2000/svg" xmlns:xlink="http://www.w3.org/1999/xlink" width="22" height="32" viewBox="0 0 22 32">
<path id="tt-path" d="M16.35 1.249l1.468 0.91 1.305 1.119 0.592 0.69h-7.046v7.626l-0.323-0.136-0.55-0.136-0.581-0.047-0.58 0.047-0.55 0.136-0.514 0.217-0.469 0.291-0.417 0.358-0.357 0.417-0.291 0.469-0.218 0.513-0.136 0.55-0.047 0.58 0.047 0.58 0.136 0.55 0.218 0.513 0.291 0.469 0.357 0.417 0.417 0.358 0.469 0.291 0.514 0.217 0.55 0.136 0.58 0.047 0.581-0.047 0.55-0.136 0.514-0.217 0.469-0.291 0.417-0.358 0.358-0.417 0.291-0.469 0.217-0.513 0.136-0.55 0.046-0.58v-7.731h6.811l0.226 0.536 0.424 1.724 0.146 1.819-0.314 2.623-0.852 2.765-1.254 2.808-1.523 2.753-1.657 2.599-1.658 2.348-1.524 1.997-1.254 1.548-0.851 1.002-0.313 0.355-0.313-0.355-0.851-1.002-1.254-1.548-1.524-1.997-1.657-2.348-1.657-2.599-1.524-2.753-1.254-2.808-0.852-2.765-0.314-2.623 0.146-1.819 0.424-1.724 0.679-1.607 0.91-1.468 1.119-1.304 1.304-1.119 1.468-0.91 1.607-0.678 1.724-0.424 1.819-0.146 1.819 0.146 1.724 0.424 1.607 0.678z"></path>
</svg>
