<?xml version="1.0" encoding="utf-8"?>
<svg style="isolation:isolate" width="300" height="300" xmlns="http://www.w3.org/2000/svg">
  <defs>
    <style id="bx-google-fonts">@import url(https://fonts.googleapis.com/css?family=Roboto:100,300,500,700,900,100italic,300italic,400,400italic,500italic,700italic,900italic);</style>
  </defs>
  <path d="M 0 0 L 2069.756 0 L 2069.756 300 L 0 300 L 0 0 Z" fill="rgba(0,0,0,0)" stroke-width="1" stroke="rgba(0,0,0,0)" stroke-linejoin="miter" stroke-linecap="butt"/>
  <path d="M 149.5 24 C 101.12500000000001 24.000000000000007 62 63.12499999999999 62 111.5 C 62 177.12500000000003 149.5 274 149.5 274 C 149.5 274 237.00000000000003 177.12500000000003 237 111.5 C 237 63.12499999999999 197.875 24.000000000000004 149.5 24 M 152.5 110.99999999999999 M 149.5 24 Z M 147.16666666667 59.50000000000002 L 147.16666666667 102.80666666667003 C 144.97333333333333 102.01333333333332 142.64 101.49999999999999 140.16666666667004 101.50000000000001 C 128.54666666666668 101.49999999999999 119.16666666666667 110.88000000000001 119.16666666667 122.5 C 119.16666666666669 134.11999999999998 128.54666666666668 143.5 140.16666666667 143.5 C 150.94666666666666 143.5 159.76666666666665 135.33333333333331 160.93333333333 124.83333333333003 L 161.16666666667 124.83333333333003 L 161.16666666666998 73.5 L 179.83333333333 73.49999999999999 L 179.83333333333 59.5 L 147.16666666667 59.50000000000002 Z" style="stroke:none;fill:#000000;stroke-miterlimit:10;fill-rule:evenodd;"/>
  <text x="295.323" y="263.854" style="font-size: 314px; text-transform: capitalize; white-space: pre;">Travel</text>
  <text x="1178.139" y="263.847" style="font-size: 314px; text-transform: capitalize; white-space: pre;">Tunes</text>
</svg>